<svg xmlns="http://www.w3.org/2000/svg" width="1440" height="960" viewBox="0 0 1440 960">
  <rect width="1440" height="960" fill="#f8fafc"/>
  <style>
    .title{font:700 24px Inter,Segoe UI,"Yu Gothic UI",Meiryo,Arial,sans-serif;fill:#020617}
    .h2{font:700 17px Inter,Segoe UI,"Yu Gothic UI",Meiryo,Arial,sans-serif;fill:#020617}
    .h3{font:700 14px Inter,Segoe UI,"Yu Gothic UI",Meiryo,Arial,sans-serif;fill:#020617}
    .body{font:500 13px Inter,Segoe UI,"Yu Gothic UI",Meiryo,Arial,sans-serif;fill:#020617}
    .small{font:500 11px Inter,Segoe UI,"Yu Gothic UI",Meiryo,Arial,sans-serif;fill:#334155}
    .tiny{font:600 10px Inter,Segoe UI,"Yu Gothic UI",Meiryo,Arial,sans-serif;fill:#334155}
    .mono{font:500 12px Consolas,Menlo,monospace;fill:#020617}
    .nav{font:650 13px Inter,Segoe UI,Arial,sans-serif;fill:#334155}
    .nav-on{font:700 13px Inter,Segoe UI,Arial,sans-serif;fill:#4338ca}
  </style>
  
    <rect x="0" y="0" width="200" height="960" rx="0" fill="#ffffff" stroke="#e2e8f0"/>
    <text x="28" y="42" class="title">Nagare</text>
    <text x="30" y="64" class="tiny" style="fill:#4338ca">HACHIWARE LABS</text>
    <text x="30" y="82" class="small">Agent work control</text>
    <rect x="18" y="96" width="164" height="32" rx="7" fill="#eef2ff" stroke="#eef2ff"/>
      <text x="34" y="118" class="nav-on">Work Items</text>
      <text x="34" y="156" class="nav">Agents</text>
      <text x="34" y="194" class="nav">Settings</text>
    <line x1="200" y1="0" x2="200" y2="960" stroke="#e2e8f0"/>
    
    <text x="232" y="48" class="title">work_0042 / 調査ソース一覧を作成</text>
    <rect x="694" y="27" width="48" height="24" rx="12" fill="#fffbeb" stroke="#fffbeb"/>
  <text x="703" y="43" class="tiny" style="fill:#b45309">要確認</text>
    <rect x="1196" y="26" width="112" height="34" rx="7" fill="#4338ca" stroke="#4338ca"/>
  <text x="1210" y="48" class="body" style="fill:#ffffff">検証を実行</text>
    <rect x="1320" y="26" width="118" height="34" rx="7" fill="#f1f5f9" stroke="#e2e8f0"/>
  <text x="1334" y="48" class="body" style="fill:#94a3b8">承認は検証後</text>
    <rect x="232" y="92" width="248" height="692" rx="8" fill="#ffffff" stroke="#e2e8f0"/>
    <text x="252" y="128" class="h2">概要</text><text x="252" y="148" class="small">文脈を見失わない</text>
    <text x="252" y="178" class="h3">対象</text>
    <text x="252" y="202" class="small">docs/research/source-list.md</text>
    <text x="252" y="248" class="h3">Agents</text>
    <text x="252" y="272" class="small">dispatch: dispatch-app</text>
    <text x="252" y="296" class="small">target: research-agent</text>
    <text x="252" y="340" class="h3">最新状態</text>
    <rect x="252" y="356" width="53" height="24" rx="12" fill="#ecfdf5" stroke="#ecfdf5"/>
  <text x="261" y="372" class="tiny" style="fill:#047857">依頼先決定</text>
    <rect x="252" y="388" width="53" height="24" rx="12" fill="#ecfdf5" stroke="#ecfdf5"/>
  <text x="261" y="404" class="tiny" style="fill:#047857">run成功</text>
    <rect x="252" y="420" width="48" height="24" rx="12" fill="#fffbeb" stroke="#fffbeb"/>
  <text x="261" y="436" class="tiny" style="fill:#b45309">回答待ち</text>
    <text x="252" y="476" class="h3">次に必要</text>
    <text x="252" y="502" class="small">Agentからの質問に回答する</text>
    <text x="512" y="104" class="h2">実行タイムライン</text>
    
    <rect x="512" y="120" width="228" height="24" rx="12" fill="#eef2ff" stroke="#eef2ff"/>
  <text x="521" y="136" class="tiny" style="fill:#4338ca">current target: research-agent</text>
    <rect x="730" y="120" width="67" height="24" rx="12" fill="#fffbeb" stroke="#fffbeb"/>
  <text x="739" y="136" class="tiny" style="fill:#b45309">人への質問あり</text>
    <rect x="900" y="120" width="74" height="24" rx="12" fill="#f1f5f9" stroke="#f1f5f9"/>
  <text x="909" y="136" class="tiny" style="fill:#475569">7 events</text>
    <line x1="548" y1="168" x2="548" y2="728" stroke="#e2e8f0"/>

    <circle cx="548" cy="186" r="8" fill="#eef2ff" stroke="#4338ca" stroke-width="2"/>
    <rect x="574" y="166" width="420" height="46" rx="7" fill="#ffffff" stroke="#e2e8f0"/>
    <rect x="594" y="187" width="67" height="24" rx="12" fill="#eef2ff" stroke="#eef2ff"/>
  <text x="603" y="203" class="tiny" style="fill:#4338ca">Request</text>
    <text x="694" y="202" class="h3">調査ソース一覧を作成</text>
    <text x="884" y="202" class="small">12:03</text>

    <circle cx="548" cy="250" r="8" fill="#ecfdf5" stroke="#047857" stroke-width="2"/>
    <rect x="574" y="230" width="420" height="46" rx="7" fill="#ffffff" stroke="#e2e8f0"/>
    <rect x="594" y="241" width="74" height="24" rx="12" fill="#ecfdf5" stroke="#ecfdf5"/>
  <text x="603" y="257" class="tiny" style="fill:#047857">Dispatch</text>
    <text x="706" y="256" class="h3">target research-agent</text>
    <rect x="884" y="241" width="88" height="24" rx="12" fill="#ecfdf5" stroke="#ecfdf5"/>
  <text x="893" y="257" class="tiny" style="fill:#047857">0 warnings</text>

    <circle cx="548" cy="314" r="8" fill="#ecfdf5" stroke="#047857" stroke-width="2"/>
    <rect x="574" y="294" width="420" height="46" rx="7" fill="#ffffff" stroke="#e2e8f0"/>
    <rect x="594" y="305" width="48" height="24" rx="12" fill="#ecfdf5" stroke="#ecfdf5"/>
  <text x="603" y="321" class="tiny" style="fill:#047857">Run</text>
    <text x="668" y="320" class="h3">exit 0 / 44s / research-agent</text>
    <text x="914" y="320" class="small">12:05</text>

    <circle cx="548" cy="378" r="8" fill="#eef2ff" stroke="#4338ca" stroke-width="2"/>
    <rect x="574" y="358" width="420" height="46" rx="7" fill="#ffffff" stroke="#e2e8f0"/>
    <rect x="594" y="369" width="74" height="24" rx="12" fill="#eef2ff" stroke="#eef2ff"/>
  <text x="603" y="385" class="tiny" style="fill:#4338ca">Artifact</text>
    <text x="696" y="384" class="h3">art_0010 / ev_0011</text>
    <rect x="856" y="369" width="81" height="24" rx="12" fill="#eef2ff" stroke="#eef2ff"/>
  <text x="865" y="385" class="tiny" style="fill:#4338ca">2 records</text>

    <circle cx="548" cy="442" r="8" fill="#fffbeb" stroke="#b45309" stroke-width="2"/>
    <rect x="574" y="422" width="420" height="46" rx="7" fill="#ffffff" stroke="#e2e8f0"/>
    <rect x="594" y="433" width="60" height="24" rx="12" fill="#fffbeb" stroke="#fffbeb"/>
  <text x="603" y="449" class="tiny" style="fill:#b45309">Review</text>
    <text x="684" y="448" class="h3">追加条件の確認が必要</text>
    <rect x="866" y="433" width="74" height="24" rx="12" fill="#fffbeb" stroke="#fffbeb"/>
  <text x="875" y="449" class="tiny" style="fill:#b45309">question</text>

    <circle cx="548" cy="542" r="10" fill="#fffbeb" stroke="#b45309" stroke-width="2"/>
    <rect x="574" y="486" width="420" height="142" rx="8" fill="#ffffff" stroke="#4338ca"/>
    <text x="594" y="510" class="h3">⌄ 人への質問</text>
    <rect x="704" y="493" width="74" height="24" rx="12" fill="#eef2ff" stroke="#eef2ff"/>
  <text x="713" y="509" class="tiny" style="fill:#4338ca">selected</text>
    <rect x="786" y="493" width="48" height="24" rx="12" fill="#fffbeb" stroke="#fffbeb"/>
  <text x="795" y="509" class="tiny" style="fill:#b45309">回答待ち</text>
    <text x="594" y="550" class="h3">release note のURLを追加してよいですか？</text>
    <text x="594" y="572" class="small">Agentが判断できない前提を人に確認中。</text>
    <rect x="594" y="586" width="96" height="34" rx="7" fill="#4338ca" stroke="#4338ca"/>
  <text x="608" y="608" class="body" style="fill:#ffffff">回答する</text>
    <rect x="702" y="586" width="86" height="34" rx="7" fill="#ffffff" stroke="#e2e8f0"/>
  <text x="716" y="608" class="body" style="fill:#020617">Artifact</text>
    <rect x="800" y="586" width="96" height="34" rx="7" fill="#ffffff" stroke="#e2e8f0"/>
  <text x="814" y="608" class="body" style="fill:#020617">Handoff</text>

    <circle cx="548" cy="672" r="8" fill="#f1f5f9" stroke="#475569" stroke-width="2"/>
    <rect x="574" y="652" width="420" height="46" rx="7" fill="#ffffff" stroke="#e2e8f0"/>
    <rect x="594" y="663" width="102" height="24" rx="12" fill="#f1f5f9" stroke="#f1f5f9"/>
  <text x="603" y="679" class="tiny" style="fill:#475569">Verification</text>
    <text x="714" y="678" class="h3">回答後に検証</text>
    <text x="914" y="678" class="small">next</text>

    <circle cx="548" cy="734" r="8" fill="#f1f5f9" stroke="#475569" stroke-width="2"/>
    <text x="574" y="740" class="tiny">必要なら Handoff / 再実行 / 追加指示をこの下に追加</text>
  
    <rect x="1024" y="92" width="372" height="692" rx="8" fill="#ffffff" stroke="#e2e8f0"/>
    <text x="1044" y="128" class="h2">Inspector: 人への質問</text><text x="1044" y="148" class="small">selected timeline item</text>
    <rect x="1044" y="168" width="74" height="24" rx="12" fill="#eef2ff" stroke="#eef2ff"/>
  <text x="1053" y="184" class="tiny" style="fill:#4338ca">selected</text> <rect x="1128" y="168" width="48" height="24" rx="12" fill="#fffbeb" stroke="#fffbeb"/>
  <text x="1137" y="184" class="tiny" style="fill:#b45309">回答待ち</text>
    <text x="1044" y="220" class="h3">次の操作</text>
    <text x="1044" y="246" class="small">質問に回答し、後続の検証へ進める。</text>
    <text x="1044" y="278" class="h3">前後</text>
    <rect x="1044" y="296" width="82" height="34" rx="7" fill="#ffffff" stroke="#e2e8f0"/>
  <text x="1058" y="318" class="body" style="fill:#020617">Review</text>
    <rect x="1138" y="296" width="112" height="34" rx="7" fill="#ffffff" stroke="#e2e8f0"/>
  <text x="1152" y="318" class="body" style="fill:#020617">Verification</text>
    <text x="1044" y="350" class="h3">質問</text>
    <rect x="1044" y="368" width="318" height="78" rx="6" fill="#f8fafc" stroke="#e2e8f0"/>
    <text x="1060" y="396" class="small">release note のURLを</text>
    <text x="1060" y="416" class="small">成果物に追加してよいですか？</text>
    <text x="1044" y="496" class="h3">回答後の処理</text>
    <rect x="1044" y="514" width="144" height="24" rx="12" fill="#fffbeb" stroke="#fffbeb"/>
  <text x="1053" y="530" class="tiny" style="fill:#b45309">instruction update</text>
    <rect x="1182" y="514" width="137" height="24" rx="12" fill="#f1f5f9" stroke="#f1f5f9"/>
  <text x="1191" y="530" class="tiny" style="fill:#475569">verification next</text>
    <rect x="1044" y="566" width="96" height="34" rx="7" fill="#4338ca" stroke="#4338ca"/>
  <text x="1058" y="588" class="body" style="fill:#ffffff">回答する</text>
    <rect x="1156" y="566" width="120" height="34" rx="7" fill="#ffffff" stroke="#e2e8f0"/>
  <text x="1170" y="588" class="body" style="fill:#020617">Artifactを見る</text>
    <rect x="1044" y="614" width="116" height="34" rx="7" fill="#ffffff" stroke="#e2e8f0"/>
  <text x="1058" y="636" class="body" style="fill:#020617">Handoff作成</text>
  
  
</svg>