<svg xmlns="http://www.w3.org/2000/svg" width="1440" height="960" viewBox="0 0 1440 960">
  <rect width="1440" height="960" fill="#f8fafc"/>
  <style>
    .title{font:700 24px Inter,Segoe UI,"Yu Gothic UI",Meiryo,Arial,sans-serif;fill:#020617}
    .h2{font:700 17px Inter,Segoe UI,"Yu Gothic UI",Meiryo,Arial,sans-serif;fill:#020617}
    .h3{font:700 14px Inter,Segoe UI,"Yu Gothic UI",Meiryo,Arial,sans-serif;fill:#020617}
    .body{font:500 13px Inter,Segoe UI,"Yu Gothic UI",Meiryo,Arial,sans-serif;fill:#020617}
    .small{font:500 11px Inter,Segoe UI,"Yu Gothic UI",Meiryo,Arial,sans-serif;fill:#334155}
    .tiny{font:600 10px Inter,Segoe UI,"Yu Gothic UI",Meiryo,Arial,sans-serif;fill:#334155}
    .mono{font:500 12px Consolas,Menlo,monospace;fill:#020617}
    .nav{font:650 13px Inter,Segoe UI,Arial,sans-serif;fill:#334155}
    .nav-on{font:700 13px Inter,Segoe UI,Arial,sans-serif;fill:#4338ca}
  </style>
  
    <rect x="0" y="0" width="200" height="960" rx="0" fill="#ffffff" stroke="#e2e8f0"/>
    <text x="28" y="42" class="title">Nagare</text>
    <text x="30" y="64" class="tiny" style="fill:#4338ca">HACHIWARE LABS</text>
    <text x="30" y="82" class="small">Agent work control</text>
    <rect x="18" y="96" width="164" height="32" rx="7" fill="#eef2ff" stroke="#eef2ff"/>
      <text x="34" y="118" class="nav-on">Work Items</text>
      <text x="34" y="156" class="nav">Agents</text>
      <text x="34" y="194" class="nav">Settings</text>
    <line x1="200" y1="0" x2="200" y2="960" stroke="#e2e8f0"/>
    
    <text x="232" y="48" class="title">work_0042 / 調査ソース一覧を作成</text>
    <rect x="694" y="27" width="48" height="24" rx="12" fill="#fffbeb" stroke="#fffbeb"/>
  <text x="703" y="43" class="tiny" style="fill:#b45309">要確認</text>
    <rect x="1128" y="26" width="112" height="34" rx="7" fill="#4338ca" stroke="#4338ca"/>
  <text x="1142" y="48" class="body" style="fill:#ffffff">次へ進める</text>
    <rect x="1248" y="26" width="104" height="34" rx="7" fill="#ffffff" stroke="#e2e8f0"/>
  <text x="1262" y="48" class="body" style="fill:#020617">判断を確認</text>
    <rect x="1360" y="26" width="76" height="34" rx="7" fill="#f1f5f9" stroke="#e2e8f0"/>
  <text x="1374" y="48" class="body" style="fill:#94a3b8">承認不可</text>
    <rect x="232" y="92" width="248" height="692" rx="8" fill="#ffffff" stroke="#e2e8f0"/>
    <text x="252" y="128" class="h2">概要</text><text x="252" y="148" class="small">DoDと次の操作を固定表示</text>
    <text x="252" y="178" class="h3">work_folder</text>
    <text x="252" y="202" class="small">docs/research</text>
    <text x="252" y="248" class="h3">Agents</text>
    <text x="252" y="272" class="small">dispatch: dispatch-app</text>
    <text x="252" y="296" class="small">supervisor: codex-impl</text>
    <text x="252" y="320" class="small">target: research-agent</text>
    <text x="252" y="364" class="h3">DoD</text>
    <rect x="252" y="380" width="102" height="24" rx="12" fill="#fffbeb" stroke="#fffbeb"/>
  <text x="261" y="396" class="tiny" style="fill:#b45309">criteria 1/2</text>
    <rect x="252" y="412" width="144" height="24" rx="12" fill="#fffbeb" stroke="#fffbeb"/>
  <text x="261" y="428" class="tiny" style="fill:#b45309">expected 1 missing</text>
    <rect x="252" y="444" width="95" height="24" rx="12" fill="#f1f5f9" stroke="#f1f5f9"/>
  <text x="261" y="460" class="tiny" style="fill:#475569">verify hint</text>
    <text x="252" y="500" class="h3">次に必要</text>
    <text x="252" y="526" class="small">回復案を採用する</text>
    <text x="512" y="104" class="h2">実行タイムライン</text>
    
    <rect x="512" y="120" width="172" height="24" rx="12" fill="#eef2ff" stroke="#eef2ff"/>
  <text x="521" y="136" class="tiny" style="fill:#4338ca">target: research-agent</text>
    <rect x="684" y="120" width="123" height="24" rx="12" fill="#fffbeb" stroke="#fffbeb"/>
  <text x="693" y="136" class="tiny" style="fill:#b45309">criteria failed</text>
    <rect x="814" y="120" width="116" height="24" rx="12" fill="#fffbeb" stroke="#fffbeb"/>
  <text x="823" y="136" class="tiny" style="fill:#b45309">recovery draft</text>
    <rect x="946" y="120" width="74" height="24" rx="12" fill="#f1f5f9" stroke="#f1f5f9"/>
  <text x="955" y="136" class="tiny" style="fill:#475569">9 events</text>
    <line x1="548" y1="168" x2="548" y2="728" stroke="#e2e8f0"/>

    <circle cx="548" cy="186" r="8" fill="#eef2ff" stroke="#4338ca" stroke-width="2"/>
    <rect x="574" y="166" width="420" height="46" rx="7" fill="#ffffff" stroke="#e2e8f0"/>
    <rect x="594" y="187" width="67" height="24" rx="12" fill="#eef2ff" stroke="#eef2ff"/>
  <text x="603" y="203" class="tiny" style="fill:#4338ca">Request</text>
    <text x="694" y="202" class="h3">調査ソース一覧を作成</text>
    <text x="884" y="202" class="small">12:03</text>

    <circle cx="548" cy="250" r="8" fill="#eef2ff" stroke="#4338ca" stroke-width="2"/>
    <rect x="574" y="230" width="420" height="46" rx="7" fill="#ffffff" stroke="#e2e8f0"/>
    <rect x="594" y="241" width="48" height="24" rx="12" fill="#eef2ff" stroke="#eef2ff"/>
  <text x="603" y="257" class="tiny" style="fill:#4338ca">判断</text>
    <text x="706" y="256" class="h3">dispatch to research-agent</text>
    <rect x="894" y="241" width="48" height="24" rx="12" fill="#eef2ff" stroke="#eef2ff"/>
  <text x="903" y="257" class="tiny" style="fill:#4338ca">0.82</text>

    <circle cx="548" cy="314" r="8" fill="#ecfdf5" stroke="#047857" stroke-width="2"/>
    <rect x="574" y="294" width="420" height="46" rx="7" fill="#ffffff" stroke="#e2e8f0"/>
    <rect x="594" y="305" width="74" height="24" rx="12" fill="#ecfdf5" stroke="#ecfdf5"/>
  <text x="603" y="321" class="tiny" style="fill:#047857">Dispatch</text>
    <text x="706" y="320" class="h3">accepted / no warnings</text>
    <text x="914" y="320" class="small">12:04</text>

    <circle cx="548" cy="378" r="8" fill="#ecfdf5" stroke="#047857" stroke-width="2"/>
    <rect x="574" y="358" width="420" height="46" rx="7" fill="#ffffff" stroke="#e2e8f0"/>
    <rect x="594" y="369" width="48" height="24" rx="12" fill="#ecfdf5" stroke="#ecfdf5"/>
  <text x="603" y="385" class="tiny" style="fill:#047857">Run</text>
    <text x="668" y="384" class="h3">exit 0 / art_0010 / diff_0011</text>
    <text x="914" y="384" class="small">12:05</text>

    <circle cx="548" cy="442" r="8" fill="#fffbeb" stroke="#b45309" stroke-width="2"/>
    <rect x="574" y="422" width="420" height="46" rx="7" fill="#ffffff" stroke="#e2e8f0"/>
    <rect x="594" y="433" width="60" height="24" rx="12" fill="#fffbeb" stroke="#fffbeb"/>
  <text x="603" y="449" class="tiny" style="fill:#b45309">Review</text>
    <text x="684" y="448" class="h3">criteria: 1 pass / 1 failed</text>
    <rect x="886" y="433" width="67" height="24" rx="12" fill="#fffbeb" stroke="#fffbeb"/>
  <text x="895" y="449" class="tiny" style="fill:#b45309">changes</text>

    <circle cx="548" cy="542" r="10" fill="#fffbeb" stroke="#b45309" stroke-width="2"/>
    <rect x="574" y="486" width="420" height="142" rx="8" fill="#ffffff" stroke="#4338ca"/>
    <text x="594" y="510" class="h3">⌄ 回復案</text>
    <rect x="730" y="493" width="74" height="24" rx="12" fill="#eef2ff" stroke="#eef2ff"/>
  <text x="739" y="509" class="tiny" style="fill:#4338ca">selected</text>
    <rect x="812" y="493" width="130" height="24" rx="12" fill="#fffbeb" stroke="#fffbeb"/>
  <text x="821" y="509" class="tiny" style="fill:#b45309">missing_artifact</text>
    <text x="594" y="550" class="h3">expected release source list が不足</text>
    <text x="594" y="572" class="small">review_changes から回復候補を作成。</text>
    <rect x="594" y="586" width="118" height="34" rx="7" fill="#4338ca" stroke="#4338ca"/>
  <text x="608" y="608" class="body" style="fill:#ffffff">採用して適用</text>
    <rect x="726" y="586" width="92" height="34" rx="7" fill="#ffffff" stroke="#e2e8f0"/>
  <text x="740" y="608" class="body" style="fill:#020617">失敗Run</text>
    <rect x="830" y="586" width="96" height="34" rx="7" fill="#ffffff" stroke="#e2e8f0"/>
  <text x="844" y="608" class="body" style="fill:#020617">Handoff</text>

    <circle cx="548" cy="672" r="8" fill="#f1f5f9" stroke="#475569" stroke-width="2"/>
    <rect x="574" y="652" width="420" height="46" rx="7" fill="#ffffff" stroke="#e2e8f0"/>
    <rect x="594" y="663" width="48" height="24" rx="12" fill="#f1f5f9" stroke="#f1f5f9"/>
  <text x="603" y="679" class="tiny" style="fill:#475569">判断</text>
    <text x="704" y="678" class="h3">apply recovery or ask human</text>
    <text x="914" y="678" class="small">next</text>

    <circle cx="548" cy="734" r="8" fill="#f1f5f9" stroke="#475569" stroke-width="2"/>
    <text x="574" y="740" class="tiny">回復後に Run / Review / Verification / Approval が続く</text>
  
    <rect x="1024" y="92" width="372" height="692" rx="8" fill="#ffffff" stroke="#e2e8f0"/>
    <text x="1044" y="128" class="h2">Inspector: 回復案</text><text x="1044" y="148" class="small">selected timeline item</text>
    <rect x="1044" y="168" width="53" height="24" rx="12" fill="#fffbeb" stroke="#fffbeb"/>
  <text x="1053" y="184" class="tiny" style="fill:#b45309">draft</text> <rect x="1114" y="168" width="116" height="24" rx="12" fill="#fffbeb" stroke="#fffbeb"/>
  <text x="1123" y="184" class="tiny" style="fill:#b45309">review_changes</text> <rect x="1236" y="168" width="116" height="24" rx="12" fill="#eef2ff" stroke="#eef2ff"/>
  <text x="1245" y="184" class="tiny" style="fill:#4338ca">research-agent</text>
    <text x="1044" y="220" class="h3">停止理由</text>
    <text x="1044" y="246" class="small">acceptance criteria の source coverage が未充足。</text>
    <text x="1044" y="278" class="h3">回復候補</text>
    <rect x="1044" y="296" width="318" height="70" rx="6" fill="#f8fafc" stroke="#e2e8f0"/>
    <text x="1060" y="324" class="small">rerun_with_contract_reminder</text>
    <text x="1060" y="344" class="small">OutputContractとexpected artifactsを再注入</text>
    <text x="1044" y="400" class="h3">関連</text>
    <rect x="1044" y="418" width="95" height="24" rx="12" fill="#fffbeb" stroke="#fffbeb"/>
  <text x="1053" y="434" class="tiny" style="fill:#b45309">review_0012</text>
    <rect x="1154" y="418" width="74" height="24" rx="12" fill="#eef2ff" stroke="#eef2ff"/>
  <text x="1163" y="434" class="tiny" style="fill:#4338ca">art_0010</text>
    <rect x="1244" y="418" width="81" height="24" rx="12" fill="#f1f5f9" stroke="#f1f5f9"/>
  <text x="1253" y="434" class="tiny" style="fill:#475569">diff_0011</text>
    <text x="1044" y="496" class="h3">次の操作</text>
    <text x="1044" y="522" class="small">採用すると同じWork ItemでAgent再実行へ進む。</text>
    <rect x="1044" y="566" width="126" height="34" rx="7" fill="#4338ca" stroke="#4338ca"/>
  <text x="1058" y="588" class="body" style="fill:#ffffff">採用して適用</text>
    <rect x="1186" y="566" width="116" height="34" rx="7" fill="#ffffff" stroke="#e2e8f0"/>
  <text x="1200" y="588" class="body" style="fill:#020617">Handoff作成</text>
    <rect x="1044" y="614" width="126" height="34" rx="7" fill="#ffffff" stroke="#e2e8f0"/>
  <text x="1058" y="636" class="body" style="fill:#020617">失敗Runを見る</text>
  
  
</svg>