<svg xmlns="http://www.w3.org/2000/svg" width="1440" height="960" viewBox="0 0 1440 960">
  <rect width="1440" height="960" fill="#f8fafc"/>
  <style>
    .title{font:700 24px Inter,Segoe UI,"Yu Gothic UI",Meiryo,Arial,sans-serif;fill:#020617}
    .h2{font:700 17px Inter,Segoe UI,"Yu Gothic UI",Meiryo,Arial,sans-serif;fill:#020617}
    .h3{font:700 14px Inter,Segoe UI,"Yu Gothic UI",Meiryo,Arial,sans-serif;fill:#020617}
    .body{font:500 13px Inter,Segoe UI,"Yu Gothic UI",Meiryo,Arial,sans-serif;fill:#020617}
    .small{font:500 11px Inter,Segoe UI,"Yu Gothic UI",Meiryo,Arial,sans-serif;fill:#334155}
    .tiny{font:600 10px Inter,Segoe UI,"Yu Gothic UI",Meiryo,Arial,sans-serif;fill:#334155}
    .mono{font:500 12px Consolas,Menlo,monospace;fill:#020617}
    .nav{font:650 13px Inter,Segoe UI,Arial,sans-serif;fill:#334155}
    .nav-on{font:700 13px Inter,Segoe UI,Arial,sans-serif;fill:#4338ca}
  </style>
  
    <rect x="0" y="0" width="200" height="960" rx="0" fill="#ffffff" stroke="#e2e8f0"/>
    <text x="28" y="42" class="title">Nagare</text>
    <text x="30" y="64" class="tiny" style="fill:#4338ca">HACHIWARE LABS</text>
    <text x="30" y="82" class="small">Agent work control</text>
    
      <text x="34" y="118" class="nav">Work Items</text><rect x="18" y="134" width="164" height="32" rx="7" fill="#eef2ff" stroke="#eef2ff"/>
      <text x="34" y="156" class="nav-on">Agents</text>
      <text x="34" y="194" class="nav">Settings</text>
    <line x1="200" y1="0" x2="200" y2="960" stroke="#e2e8f0"/>
    
    <text x="232" y="48" class="title">Agent Profiles</text>
    <rect x="1232" y="26" width="106" height="34" rx="7" fill="#4338ca" stroke="#4338ca"/>
  <text x="1246" y="48" class="body" style="fill:#ffffff">Add Agent</text>
    <rect x="1340" y="26" width="92" height="34" rx="7" fill="#ffffff" stroke="#e2e8f0"/>
  <text x="1354" y="48" class="body" style="fill:#020617">Defaults</text>
    <rect x="232" y="92" width="782" height="622" rx="8" fill="#ffffff" stroke="#e2e8f0"/>
    <text x="252" y="128" class="h2">Profiles</text><text x="252" y="148" class="small">Compare routing hints, runtime, adapter, and probe state</text>
    <rect x="252" y="166" width="742" height="54" rx="0" fill="#ffffff" stroke="#e2e8f0"/><text x="266" y="187" class="body">research-agent</text><text x="266" y="205" class="small">Research Agent</text><text x="424.25" y="187" class="small">researcher</text><text x="424.25" y="205" class="small">research, synthesis</text><text x="582.5" y="187" class="small">process.codex-cli</text><text x="582.5" y="205" class="small">working_dir .</text><text x="740.75" y="187" class="small">healthy</text><text x="740.75" y="205" class="small">probe fresh</text><rect x="913" y="181" width="67" height="24" rx="12" fill="#eef2ff" stroke="#eef2ff"/>
  <text x="922" y="197" class="tiny" style="fill:#4338ca">default</text>
    <rect x="252" y="236" width="742" height="54" rx="0" fill="#ffffff" stroke="#e2e8f0"/><text x="266" y="257" class="body">writing-agent</text><text x="266" y="275" class="small">Writing Agent</text><text x="444.5" y="257" class="small">writer</text><text x="444.5" y="275" class="small">writing, editing</text><text x="623" y="257" class="small">process.codex-cli</text><text x="623" y="275" class="small">working_dir .</text><text x="801.5" y="257" class="small">healthy</text><text x="801.5" y="275" class="small">probe fresh</text>
    <rect x="252" y="306" width="742" height="54" rx="0" fill="#ffffff" stroke="#e2e8f0"/><text x="266" y="327" class="body">dispatch-app</text><text x="266" y="345" class="small">Dispatch App</text><text x="427.75" y="327" class="small">dispatcher</text><text x="427.75" y="345" class="small">planning, dispatch</text><text x="589.5" y="327" class="small">stdio.codex-app-server</text><text x="589.5" y="345" class="small">working_dir .</text><text x="751.25" y="327" class="small">unknown</text><text x="751.25" y="345" class="small">probe stale</text><rect x="927" y="321" width="53" height="24" rx="12" fill="#fffbeb" stroke="#fffbeb"/>
  <text x="936" y="337" class="tiny" style="fill:#b45309">stale</text>
    <rect x="1042" y="92" width="354" height="622" rx="8" fill="#ffffff" stroke="#e2e8f0"/>
    <text x="1062" y="128" class="h2">Defaults</text><text x="1062" y="148" class="small">Nagare agents</text>
    <text x="1062" y="184" class="tiny">work_agent</text>
    <text x="1062" y="210" class="h3">writing-agent</text>
    <text x="1062" y="256" class="tiny">review_agent</text>
    <text x="1062" y="282" class="h3">writing-agent</text>
    <text x="1062" y="328" class="tiny">dispatch_agent</text>
    <text x="1062" y="354" class="h3">dispatch-app</text>
    <text x="1062" y="400" class="tiny">supervisor_agent</text>
    <text x="1062" y="426" class="h3">codex-impl</text>
    <rect x="1062" y="492" width="148" height="34" rx="7" fill="#4338ca" stroke="#4338ca"/>
  <text x="1076" y="514" class="body" style="fill:#ffffff">Change defaults</text>
  
  
</svg>