<svg xmlns="http://www.w3.org/2000/svg" width="960" height="960" viewBox="0 0 960 960">
  <rect width="960" height="960" fill="#f8fafc"/>
  <style>
    .title{font:700 24px Inter,Segoe UI,"Yu Gothic UI",Meiryo,Arial,sans-serif;fill:#020617}
    .h2{font:700 17px Inter,Segoe UI,"Yu Gothic UI",Meiryo,Arial,sans-serif;fill:#020617}
    .h3{font:700 14px Inter,Segoe UI,"Yu Gothic UI",Meiryo,Arial,sans-serif;fill:#020617}
    .body{font:500 13px Inter,Segoe UI,"Yu Gothic UI",Meiryo,Arial,sans-serif;fill:#020617}
    .small{font:500 11px Inter,Segoe UI,"Yu Gothic UI",Meiryo,Arial,sans-serif;fill:#334155}
    .tiny{font:600 10px Inter,Segoe UI,"Yu Gothic UI",Meiryo,Arial,sans-serif;fill:#334155}
    .mono{font:500 12px Consolas,Menlo,monospace;fill:#020617}
    .nav{font:650 13px Inter,Segoe UI,Arial,sans-serif;fill:#334155}
    .nav-on{font:700 13px Inter,Segoe UI,Arial,sans-serif;fill:#4338ca}
  </style>
  
    <rect x="36" y="36" width="888" height="888" rx="10" fill="#ffffff" stroke="#e2e8f0"/>
    <text x="64" y="82" class="title">Review Inspector</text>
    <text x="64" y="106" class="small">Verdict, findings, and acceptance criteria coverage</text>
    
    <rect x="64" y="142" width="123" height="24" rx="12" fill="#f1f5f9" stroke="#f1f5f9"/>
  <text x="73" y="158" class="tiny" style="fill:#475569">selected review</text> <rect x="198" y="142" width="123" height="24" rx="12" fill="#fffbeb" stroke="#fffbeb"/>
  <text x="207" y="158" class="tiny" style="fill:#b45309">criteria failed</text> <rect x="330" y="142" width="102" height="24" rx="12" fill="#eef2ff" stroke="#eef2ff"/>
  <text x="339" y="158" class="tiny" style="fill:#4338ca">review-agent</text>
    <text x="64" y="204" class="h2">Verdict</text>
    <text x="64" y="236" class="body">Request changes: one required source category is missing.</text>
    <text x="64" y="296" class="h2">Criteria results</text>
    <rect x="64" y="322" width="832" height="54" rx="0" fill="#ffffff" stroke="#e2e8f0"/><text x="78" y="343" class="body">criterion_001</text><text x="78" y="361" class="small">READMEに反映</text><text x="321.33333333333337" y="343" class="small">status</text><text x="321.33333333333337" y="361" class="small">passed</text><text x="564.6666666666667" y="343" class="small">note</text><text x="564.6666666666667" y="361" class="small">art_0010</text><rect x="822" y="337" width="60" height="24" rx="12" fill="#ecfdf5" stroke="#ecfdf5"/>
  <text x="831" y="353" class="tiny" style="fill:#047857">passed</text>
    <rect x="64" y="392" width="832" height="54" rx="0" fill="#ffffff" stroke="#e2e8f0"/><text x="78" y="413" class="body">criterion_002</text><text x="78" y="431" class="small">release note source</text><text x="321.33333333333337" y="413" class="small">status</text><text x="321.33333333333337" y="431" class="small">failed</text><text x="564.6666666666667" y="413" class="small">note</text><text x="564.6666666666667" y="431" class="small">missing URL</text><rect x="822" y="407" width="60" height="24" rx="12" fill="#fef2f2" stroke="#fef2f2"/>
  <text x="831" y="423" class="tiny" style="fill:#b91c1c">failed</text>
    <text x="64" y="496" class="h2">Findings</text>
    <rect x="64" y="522" width="832" height="54" rx="0" fill="#ffffff" stroke="#e2e8f0"/><text x="78" y="543" class="body">finding_001</text><text x="78" y="561" class="small">missing source URL</text><text x="325.33333333333337" y="543" class="small">severity</text><text x="325.33333333333337" y="561" class="small">medium</text><text x="572.6666666666667" y="543" class="small">linked</text><text x="572.6666666666667" y="561" class="small">criterion_002</text><rect x="834" y="537" width="48" height="24" rx="12" fill="#fffbeb" stroke="#fffbeb"/>
  <text x="843" y="553" class="tiny" style="fill:#b45309">open</text>
    <text x="64" y="626" class="h2">Referenced records</text>
    <rect x="64" y="650" width="137" height="24" rx="12" fill="#eef2ff" stroke="#eef2ff"/>
  <text x="73" y="666" class="tiny" style="fill:#4338ca">Artifact art_0010</text>
    <rect x="210" y="650" width="165" height="24" rx="12" fill="#fffbeb" stroke="#fffbeb"/>
  <text x="219" y="666" class="tiny" style="fill:#b45309">ReviewResult rev_0012</text>
    <rect x="390" y="650" width="116" height="24" rx="12" fill="#f1f5f9" stroke="#f1f5f9"/>
  <text x="399" y="666" class="tiny" style="fill:#475569">Diff diff_0011</text>
    <text x="64" y="726" class="h2">Next action</text>
    <text x="64" y="758" class="body">Create or apply a RecoveryPlan before approval.</text>
    <rect x="64" y="820" width="138" height="34" rx="7" fill="#4338ca" stroke="#4338ca"/>
  <text x="78" y="842" class="body" style="fill:#ffffff">Recovery plan</text>
    <rect x="220" y="820" width="142" height="34" rx="7" fill="#ffffff" stroke="#e2e8f0"/>
  <text x="234" y="842" class="body" style="fill:#020617">Create handoff</text>
    <rect x="378" y="820" width="124" height="34" rx="7" fill="#ffffff" stroke="#e2e8f0"/>
  <text x="392" y="842" class="body" style="fill:#020617">Open artifact</text>
  
  
</svg>