<svg xmlns="http://www.w3.org/2000/svg" width="960" height="960" viewBox="0 0 960 960">
  <rect width="960" height="960" fill="#f8fafc"/>
  <style>
    .title{font:700 24px Inter,Segoe UI,"Yu Gothic UI",Meiryo,Arial,sans-serif;fill:#020617}
    .h2{font:700 17px Inter,Segoe UI,"Yu Gothic UI",Meiryo,Arial,sans-serif;fill:#020617}
    .h3{font:700 14px Inter,Segoe UI,"Yu Gothic UI",Meiryo,Arial,sans-serif;fill:#020617}
    .body{font:500 13px Inter,Segoe UI,"Yu Gothic UI",Meiryo,Arial,sans-serif;fill:#020617}
    .small{font:500 11px Inter,Segoe UI,"Yu Gothic UI",Meiryo,Arial,sans-serif;fill:#334155}
    .tiny{font:600 10px Inter,Segoe UI,"Yu Gothic UI",Meiryo,Arial,sans-serif;fill:#334155}
    .mono{font:500 12px Consolas,Menlo,monospace;fill:#020617}
    .nav{font:650 13px Inter,Segoe UI,Arial,sans-serif;fill:#334155}
    .nav-on{font:700 13px Inter,Segoe UI,Arial,sans-serif;fill:#4338ca}
  </style>
  
    <rect x="36" y="36" width="888" height="888" rx="10" fill="#ffffff" stroke="#e2e8f0"/>
    <text x="64" y="82" class="title">Review Inspector</text>
    <text x="64" y="106" class="small">Decision point after artifacts and verification</text>
    
    <rect x="64" y="142" width="123" height="24" rx="12" fill="#f1f5f9" stroke="#f1f5f9"/>
  <text x="73" y="158" class="tiny" style="fill:#475569">selected review</text> <rect x="198" y="142" width="144" height="24" rx="12" fill="#fffbeb" stroke="#fffbeb"/>
  <text x="207" y="158" class="tiny" style="fill:#b45309">question requested</text> <rect x="354" y="142" width="102" height="24" rx="12" fill="#eef2ff" stroke="#eef2ff"/>
  <text x="363" y="158" class="tiny" style="fill:#4338ca">review-agent</text>
    <text x="64" y="204" class="h2">Verdict</text>
    <text x="64" y="236" class="body">Approve after source list includes release note links.</text>
    <text x="64" y="306" class="h2">Findings</text>
    <rect x="64" y="332" width="832" height="54" rx="0" fill="#ffffff" stroke="#e2e8f0"/><text x="78" y="353" class="body">finding_001</text><text x="78" y="371" class="small">missing source URL</text><text x="325.33333333333337" y="353" class="small">severity</text><text x="325.33333333333337" y="371" class="small">medium</text><text x="572.6666666666667" y="353" class="small">linked</text><text x="572.6666666666667" y="371" class="small">art_0010</text><rect x="834" y="347" width="48" height="24" rx="12" fill="#fffbeb" stroke="#fffbeb"/>
  <text x="843" y="363" class="tiny" style="fill:#b45309">open</text>
    <rect x="64" y="402" width="832" height="54" rx="0" fill="#ffffff" stroke="#e2e8f0"/><text x="78" y="423" class="body">finding_002</text><text x="78" y="441" class="small">README update ok</text><text x="325.33333333333337" y="423" class="small">severity</text><text x="325.33333333333337" y="441" class="small">low</text><text x="572.6666666666667" y="423" class="small">linked</text><text x="572.6666666666667" y="441" class="small">ev_0011</text><rect x="834" y="417" width="48" height="24" rx="12" fill="#ecfdf5" stroke="#ecfdf5"/>
  <text x="843" y="433" class="tiny" style="fill:#047857">ok</text>
    <text x="64" y="506" class="h2">Referenced records</text>
    <rect x="64" y="530" width="137" height="24" rx="12" fill="#eef2ff" stroke="#eef2ff"/>
  <text x="73" y="546" class="tiny" style="fill:#4338ca">Artifact art_0010</text>
    <rect x="210" y="530" width="130" height="24" rx="12" fill="#ecfdf5" stroke="#ecfdf5"/>
  <text x="219" y="546" class="tiny" style="fill:#047857">Evidence ev_0011</text>
    <rect x="360" y="530" width="151" height="24" rx="12" fill="#fef2f2" stroke="#fef2f2"/>
  <text x="369" y="546" class="tiny" style="fill:#b91c1c">Verification failed</text>
    <text x="64" y="624" class="h2">Next action</text>
    <text x="64" y="656" class="body">Request changes or handoff to research-agent for source repair.</text>
    <rect x="64" y="800" width="154" height="34" rx="7" fill="#4338ca" stroke="#4338ca"/>
  <text x="78" y="822" class="body" style="fill:#ffffff">Request changes</text>
    <rect x="236" y="800" width="142" height="34" rx="7" fill="#ffffff" stroke="#e2e8f0"/>
  <text x="250" y="822" class="body" style="fill:#020617">Create handoff</text>
    <rect x="394" y="800" width="124" height="34" rx="7" fill="#ffffff" stroke="#e2e8f0"/>
  <text x="408" y="822" class="body" style="fill:#020617">Open artifact</text>
  
  
</svg>