<svg xmlns="http://www.w3.org/2000/svg" width="960" height="960" viewBox="0 0 960 960">
  <rect width="960" height="960" fill="#f8fafc"/>
  <style>
    .title{font:700 24px Inter,Segoe UI,"Yu Gothic UI",Meiryo,Arial,sans-serif;fill:#020617}
    .h2{font:700 17px Inter,Segoe UI,"Yu Gothic UI",Meiryo,Arial,sans-serif;fill:#020617}
    .h3{font:700 14px Inter,Segoe UI,"Yu Gothic UI",Meiryo,Arial,sans-serif;fill:#020617}
    .body{font:500 13px Inter,Segoe UI,"Yu Gothic UI",Meiryo,Arial,sans-serif;fill:#020617}
    .small{font:500 11px Inter,Segoe UI,"Yu Gothic UI",Meiryo,Arial,sans-serif;fill:#334155}
    .tiny{font:600 10px Inter,Segoe UI,"Yu Gothic UI",Meiryo,Arial,sans-serif;fill:#334155}
    .mono{font:500 12px Consolas,Menlo,monospace;fill:#020617}
    .nav{font:650 13px Inter,Segoe UI,Arial,sans-serif;fill:#334155}
    .nav-on{font:700 13px Inter,Segoe UI,Arial,sans-serif;fill:#4338ca}
  </style>
  
    <rect x="36" y="36" width="888" height="888" rx="10" fill="#ffffff" stroke="#e2e8f0"/>
    <text x="64" y="82" class="title">Handoff Inspector</text>
    <text x="64" y="106" class="small">Move a failed item to a better agent</text>
    
    <text x="64" y="154" class="h2">Create handoff</text>
    <text x="64" y="202" class="tiny">from agent</text> <text x="340" y="202" class="tiny">to agent</text>
    <rect x="64" y="218" width="250" height="38" rx="6" fill="#f8fafc" stroke="#e2e8f0"/> <rect x="340" y="218" width="250" height="38" rx="6" fill="#f8fafc" stroke="#e2e8f0"/>
    <text x="82" y="244" class="body">writing-agent</text> <text x="358" y="244" class="body">research-agent</text>
    <text x="64" y="310" class="tiny">reason</text>
    <rect x="64" y="326" width="832" height="88" rx="6" fill="#f8fafc" stroke="#e2e8f0"/>
    <text x="84" y="358" class="small">Initial run failed because source context was missing.</text>
    <text x="64" y="482" class="h2">Existing handoffs</text>
    <rect x="64" y="510" width="832" height="54" rx="0" fill="#ffffff" stroke="#e2e8f0"/><text x="78" y="531" class="body">handoff_0012</text><text x="78" y="549" class="small">writing-agent -&gt; research-agent</text><text x="346" y="531" class="small">reason</text><text x="346" y="549" class="small">missing sources</text><text x="614" y="531" class="small">state</text><text x="614" y="549" class="small">dispatch ready</text>
    <rect x="64" y="800" width="144" height="34" rx="7" fill="#4338ca" stroke="#4338ca"/>
  <text x="78" y="822" class="body" style="fill:#ffffff">Create handoff</text>
    <rect x="224" y="800" width="156" height="34" rx="7" fill="#ffffff" stroke="#e2e8f0"/>
  <text x="238" y="822" class="body" style="fill:#020617">Dispatch handoff</text>
  
  
</svg>