<svg xmlns="http://www.w3.org/2000/svg" width="960" height="960" viewBox="0 0 960 960">
  <rect width="960" height="960" fill="#f8fafc"/>
  <style>
    .title{font:700 24px Inter,Segoe UI,"Yu Gothic UI",Meiryo,Arial,sans-serif;fill:#020617}
    .h2{font:700 17px Inter,Segoe UI,"Yu Gothic UI",Meiryo,Arial,sans-serif;fill:#020617}
    .h3{font:700 14px Inter,Segoe UI,"Yu Gothic UI",Meiryo,Arial,sans-serif;fill:#020617}
    .body{font:500 13px Inter,Segoe UI,"Yu Gothic UI",Meiryo,Arial,sans-serif;fill:#020617}
    .small{font:500 11px Inter,Segoe UI,"Yu Gothic UI",Meiryo,Arial,sans-serif;fill:#334155}
    .tiny{font:600 10px Inter,Segoe UI,"Yu Gothic UI",Meiryo,Arial,sans-serif;fill:#334155}
    .mono{font:500 12px Consolas,Menlo,monospace;fill:#020617}
    .nav{font:650 13px Inter,Segoe UI,Arial,sans-serif;fill:#334155}
    .nav-on{font:700 13px Inter,Segoe UI,Arial,sans-serif;fill:#4338ca}
  </style>
  
    <rect x="36" y="36" width="888" height="888" rx="10" fill="#ffffff" stroke="#e2e8f0"/>
    <text x="64" y="82" class="title">Defaults Modal</text>
    <text x="64" y="106" class="small">Choose work, review, and dispatch agents</text>
    
    <rect x="150" y="140" width="660" height="600" rx="12" fill="#ffffff" stroke="#e2e8f0"/>
    <text x="190" y="186" class="title">Default Agents</text>
    <text x="190" y="248" class="tiny">work_agent</text> <rect x="190" y="264" width="580" height="42" rx="6" fill="#f8fafc" stroke="#e2e8f0"/> <text x="208" y="292" class="body">writing-agent</text>
    <text x="190" y="348" class="tiny">review_agent</text> <rect x="190" y="364" width="580" height="42" rx="6" fill="#f8fafc" stroke="#e2e8f0"/> <text x="208" y="392" class="body">writing-agent</text>
    <text x="190" y="448" class="tiny">dispatch_agent</text> <rect x="190" y="464" width="580" height="42" rx="6" fill="#f8fafc" stroke="#e2e8f0"/> <text x="208" y="492" class="body">dispatch-app</text>
    <rect x="190" y="540" width="186" height="24" rx="12" fill="#fffbeb" stroke="#fffbeb"/>
  <text x="199" y="556" class="tiny" style="fill:#b45309">dispatch-app probe stale</text>
    <text x="190" y="588" class="small">Warning: probe before using this agent for dispatch.</text>
    <rect x="548" y="668" width="92" height="34" rx="7" fill="#ffffff" stroke="#e2e8f0"/>
  <text x="562" y="690" class="body" style="fill:#020617">Cancel</text>
    <rect x="654" y="668" width="88" height="34" rx="7" fill="#4338ca" stroke="#4338ca"/>
  <text x="668" y="690" class="body" style="fill:#ffffff">Save</text>
  
  
</svg>