<svg xmlns="http://www.w3.org/2000/svg" width="960" height="960" viewBox="0 0 960 960">
  <rect width="960" height="960" fill="#f8fafc"/>
  <style>
    .title{font:700 24px Inter,Segoe UI,"Yu Gothic UI",Meiryo,Arial,sans-serif;fill:#020617}
    .h2{font:700 17px Inter,Segoe UI,"Yu Gothic UI",Meiryo,Arial,sans-serif;fill:#020617}
    .h3{font:700 14px Inter,Segoe UI,"Yu Gothic UI",Meiryo,Arial,sans-serif;fill:#020617}
    .body{font:500 13px Inter,Segoe UI,"Yu Gothic UI",Meiryo,Arial,sans-serif;fill:#020617}
    .small{font:500 11px Inter,Segoe UI,"Yu Gothic UI",Meiryo,Arial,sans-serif;fill:#334155}
    .tiny{font:600 10px Inter,Segoe UI,"Yu Gothic UI",Meiryo,Arial,sans-serif;fill:#334155}
    .mono{font:500 12px Consolas,Menlo,monospace;fill:#020617}
    .nav{font:650 13px Inter,Segoe UI,Arial,sans-serif;fill:#334155}
    .nav-on{font:700 13px Inter,Segoe UI,Arial,sans-serif;fill:#4338ca}
  </style>
  
    <rect x="36" y="36" width="888" height="888" rx="10" fill="#ffffff" stroke="#e2e8f0"/>
    <text x="64" y="82" class="title">Workflow Decision Inspector</text>
    <text x="64" y="106" class="small">Next action chosen by Nagare or supervisor agent</text>
    
    <rect x="64" y="142" width="172" height="24" rx="12" fill="#eef2ff" stroke="#eef2ff"/>
  <text x="73" y="158" class="tiny" style="fill:#4338ca">action: apply_recovery</text> <rect x="236" y="142" width="179" height="24" rx="12" fill="#fffbeb" stroke="#fffbeb"/>
  <text x="245" y="158" class="tiny" style="fill:#b45309">source supervisor_agent</text> <rect x="414" y="142" width="123" height="24" rx="12" fill="#eef2ff" stroke="#eef2ff"/>
  <text x="423" y="158" class="tiny" style="fill:#4338ca">confidence 0.78</text>
    <text x="64" y="204" class="h2">Reason</text>
    <text x="64" y="236" class="body">Review failed one acceptance criterion and a matching RecoveryPlan exists.</text>
    <text x="64" y="304" class="h2">Decision fields</text>
    <rect x="64" y="330" width="832" height="54" rx="0" fill="#ffffff" stroke="#e2e8f0"/><text x="78" y="351" class="body">requires_human</text><text x="78" y="369" class="small">true</text><text x="319" y="351" class="small">target_agent</text><text x="319" y="369" class="small">research-agent</text><text x="560" y="351" class="small">agent_run</text><text x="560" y="369" class="small">run_0021</text><rect x="815" y="345" width="67" height="24" rx="12" fill="#fffbeb" stroke="#fffbeb"/>
  <text x="824" y="361" class="tiny" style="fill:#b45309">warning</text>
    <text x="64" y="434" class="h2">Command hint</text>
    <rect x="64" y="458" width="832" height="78" rx="6" fill="#f8fafc" stroke="#e2e8f0"/>
    <text x="84" y="490" class="mono">nagare item recover accept work_0042 &amp;&amp; nagare item recover apply work_0042</text>
    <text x="64" y="604" class="h2">Warnings</text>
    <rect x="64" y="628" width="207" height="24" rx="12" fill="#fffbeb" stroke="#fffbeb"/>
  <text x="73" y="644" class="tiny" style="fill:#b45309">human confirmation required</text>
    <rect x="248" y="628" width="186" height="24" rx="12" fill="#ecfdf5" stroke="#ecfdf5"/>
  <text x="257" y="644" class="tiny" style="fill:#047857">supervisor output parsed</text>
    <rect x="64" y="800" width="102" height="34" rx="7" fill="#4338ca" stroke="#4338ca"/>
  <text x="78" y="822" class="body" style="fill:#ffffff">Advance</text>
    <rect x="182" y="800" width="178" height="34" rx="7" fill="#ffffff" stroke="#e2e8f0"/>
  <text x="196" y="822" class="body" style="fill:#020617">Advance until blocked</text>
    <rect x="378" y="800" width="170" height="34" rx="7" fill="#ffffff" stroke="#e2e8f0"/>
  <text x="392" y="822" class="body" style="fill:#020617">Open supervisor run</text>
  
  
</svg>