<svg xmlns="http://www.w3.org/2000/svg" width="1440" height="960" viewBox="0 0 1440 960">
  <rect width="1440" height="960" fill="#f8fafc"/>
  <style>
    .title{font:700 24px Inter,Segoe UI,"Yu Gothic UI",Meiryo,Arial,sans-serif;fill:#020617}
    .h2{font:700 17px Inter,Segoe UI,"Yu Gothic UI",Meiryo,Arial,sans-serif;fill:#020617}
    .h3{font:700 14px Inter,Segoe UI,"Yu Gothic UI",Meiryo,Arial,sans-serif;fill:#020617}
    .body{font:500 13px Inter,Segoe UI,"Yu Gothic UI",Meiryo,Arial,sans-serif;fill:#020617}
    .small{font:500 11px Inter,Segoe UI,"Yu Gothic UI",Meiryo,Arial,sans-serif;fill:#334155}
    .tiny{font:600 10px Inter,Segoe UI,"Yu Gothic UI",Meiryo,Arial,sans-serif;fill:#334155}
    .mono{font:500 12px Consolas,Menlo,monospace;fill:#020617}
    .nav{font:650 13px Inter,Segoe UI,Arial,sans-serif;fill:#334155}
    .nav-on{font:700 13px Inter,Segoe UI,Arial,sans-serif;fill:#4338ca}
  </style>
  
    <rect x="0" y="0" width="200" height="960" rx="0" fill="#ffffff" stroke="#e2e8f0"/>
    <text x="28" y="42" class="title">Nagare</text>
    <text x="30" y="64" class="tiny" style="fill:#4338ca">HACHIWARE LABS</text>
    <text x="30" y="82" class="small">Agent work control</text>
    <rect x="18" y="96" width="164" height="32" rx="7" fill="#eef2ff" stroke="#eef2ff"/>
      <text x="34" y="118" class="nav-on">Work Items</text>
      <text x="34" y="156" class="nav">Agents</text>
      <text x="34" y="194" class="nav">Settings</text>
    <line x1="200" y1="0" x2="200" y2="960" stroke="#e2e8f0"/>
    
    <text x="232" y="48" class="title">README のセットアップ手順を更新</text>
    <rect x="694" y="30" width="48" height="24" rx="12" fill="#eef2ff" stroke="#eef2ff"/>
  <text x="703" y="46" class="tiny" style="fill:#4338ca">処理中</text>
    <rect x="780" y="30" width="109" height="24" rx="12" fill="#f1f5f9" stroke="#f1f5f9"/>
  <text x="789" y="46" class="tiny" style="fill:#475569">writing-agent</text>
    <rect x="908" y="30" width="74" height="24" rx="12" fill="#eef2ff" stroke="#eef2ff"/>
  <text x="917" y="46" class="tiny" style="fill:#4338ca">経過 00:42</text>
    <rect x="1258" y="26" width="128" height="34" rx="7" fill="#4338ca" stroke="#4338ca"/>
  <text x="1272" y="48" class="body" style="fill:#ffffff">Open Run Log</text>

    <rect x="232" y="86" width="1164" height="116" rx="8" fill="#ffffff" stroke="#e2e8f0"/>
    <text x="260" y="124" class="h2">現在地</text>
    <text x="260" y="154" class="body">Current: writing-agent が README diff を作成中</text>
    <text x="260" y="178" class="small">Why: dispatch-agent が confidence 0.86 で選定</text>
    <text x="668" y="154" class="body">Latest Step: work / processing</text>
    <text x="668" y="178" class="small">Next: AgentOutput と artifact を待つ</text>

    <rect x="232" y="226" width="724" height="558" rx="8" fill="#ffffff" stroke="#e2e8f0"/>
    <text x="260" y="266" class="h2">処理履歴</text><text x="260" y="286" class="small">Agent Flow を Work Item の history として読む</text>
    
    <rect x="286" y="304" width="440" height="86" rx="7" fill="#ffffff" stroke="#e2e8f0"/>
    <circle cx="316" cy="347" r="16" fill="#ecfdf5" stroke="#047857" stroke-width="2"/>
    <text x="308" y="351" class="tiny" style="fill:#047857">01</text>
    <text x="344" y="334" class="h3">依頼を作成</text>
    <rect x="344" y="344" width="48" height="24" rx="12" fill="#ecfdf5" stroke="#ecfdf5"/>
  <text x="353" y="360" class="tiny" style="fill:#047857">完了</text>
    <rect x="418" y="344" width="48" height="24" rx="12" fill="#f1f5f9" stroke="#f1f5f9"/>
  <text x="427" y="360" class="tiny" style="fill:#475569">User</text>
    <text x="344" y="376" class="small">12:03:04 / request and criteria recorded</text>
  
    
    <rect x="286" y="400" width="440" height="86" rx="7" fill="#ffffff" stroke="#e2e8f0"/>
    <circle cx="316" cy="443" r="16" fill="#ecfdf5" stroke="#047857" stroke-width="2"/>
    <text x="308" y="447" class="tiny" style="fill:#047857">02</text>
    <text x="344" y="430" class="h3">Agent 選定</text>
    <rect x="344" y="440" width="48" height="24" rx="12" fill="#ecfdf5" stroke="#ecfdf5"/>
  <text x="353" y="456" class="tiny" style="fill:#047857">完了</text>
    <rect x="418" y="440" width="116" height="24" rx="12" fill="#f1f5f9" stroke="#f1f5f9"/>
  <text x="427" y="456" class="tiny" style="fill:#475569">dispatch-agent</text>
    <text x="344" y="472" class="small">12:03:16 / writing-agent selected</text>
  
    
    <rect x="286" y="496" width="440" height="86" rx="7" fill="#eef2ff" stroke="#4338ca"/>
    <circle cx="316" cy="539" r="16" fill="#eef2ff" stroke="#4338ca" stroke-width="2"/>
    <text x="308" y="543" class="tiny" style="fill:#4338ca">03</text>
    <text x="344" y="526" class="h3">作業実行</text>
    <rect x="344" y="536" width="48" height="24" rx="12" fill="#eef2ff" stroke="#eef2ff"/>
  <text x="353" y="552" class="tiny" style="fill:#4338ca">処理中</text>
    <rect x="418" y="536" width="109" height="24" rx="12" fill="#f1f5f9" stroke="#f1f5f9"/>
  <text x="427" y="552" class="tiny" style="fill:#475569">writing-agent</text>
    <text x="344" y="568" class="small">12:04:02 / README diff を作成中</text>
  
    
    <rect x="286" y="592" width="440" height="86" rx="7" fill="#ffffff" stroke="#e2e8f0"/>
    <circle cx="316" cy="635" r="16" fill="#f1f5f9" stroke="#475569" stroke-width="2"/>
    <text x="308" y="639" class="tiny" style="fill:#475569">04</text>
    <text x="344" y="622" class="h3">Review</text>
    <rect x="344" y="632" width="48" height="24" rx="12" fill="#f1f5f9" stroke="#f1f5f9"/>
  <text x="353" y="648" class="tiny" style="fill:#475569">待機</text>
    <rect x="418" y="632" width="102" height="24" rx="12" fill="#f1f5f9" stroke="#f1f5f9"/>
  <text x="427" y="648" class="tiny" style="fill:#475569">review-agent</text>
    <text x="344" y="664" class="small">work output 待ち</text>
  
    
    <rect x="286" y="688" width="440" height="86" rx="7" fill="#ffffff" stroke="#e2e8f0"/>
    <circle cx="316" cy="731" r="16" fill="#f1f5f9" stroke="#475569" stroke-width="2"/>
    <text x="308" y="735" class="tiny" style="fill:#475569">05</text>
    <text x="344" y="718" class="h3">Verification</text>
    <rect x="344" y="728" width="48" height="24" rx="12" fill="#f1f5f9" stroke="#f1f5f9"/>
  <text x="353" y="744" class="tiny" style="fill:#475569">待機</text>
    <rect x="418" y="728" width="60" height="24" rx="12" fill="#f1f5f9" stroke="#f1f5f9"/>
  <text x="427" y="744" class="tiny" style="fill:#475569">runner</text>
    <text x="344" y="760" class="small">review pass 待ち</text>
  

    <rect x="984" y="226" width="412" height="558" rx="8" fill="#ffffff" stroke="#e2e8f0"/>
    <text x="1012" y="266" class="h2">選択中の履歴</text><text x="1012" y="286" class="small">History の選択中 event を詳細化</text>
    <rect x="1012" y="306" width="48" height="24" rx="12" fill="#eef2ff" stroke="#eef2ff"/>
  <text x="1021" y="322" class="tiny" style="fill:#4338ca">処理中</text>
    <rect x="1090" y="306" width="109" height="24" rx="12" fill="#f1f5f9" stroke="#f1f5f9"/>
  <text x="1099" y="322" class="tiny" style="fill:#475569">writing-agent</text>
    <rect x="1216" y="306" width="109" height="24" rx="12" fill="#f1f5f9" stroke="#f1f5f9"/>
  <text x="1225" y="322" class="tiny" style="fill:#475569">started 12:04</text>
    <text x="1012" y="366" class="h2">Step 03: 作業実行</text>
    <text x="1012" y="402" class="small">README diff を作成中。stdout / artifact は</text>
    <text x="1012" y="424" class="small">run 完了後にこの Inspector に表示する。</text>
    <text x="1012" y="492" class="h3">Facts</text>
    <rect x="1012" y="516" width="172" height="24" rx="12" fill="#ecfdf5" stroke="#ecfdf5"/>
  <text x="1021" y="532" class="tiny" style="fill:#047857">dispatch_plan accepted</text>
    <rect x="1012" y="552" width="158" height="24" rx="12" fill="#eef2ff" stroke="#eef2ff"/>
  <text x="1021" y="568" class="tiny" style="fill:#4338ca">expected README diff</text>
    <rect x="1012" y="588" width="165" height="24" rx="12" fill="#f1f5f9" stroke="#f1f5f9"/>
  <text x="1021" y="604" class="tiny" style="fill:#475569">verification npm test</text>
    <rect x="1012" y="704" width="120" height="34" rx="7" fill="#ffffff" stroke="#e2e8f0"/>
  <text x="1026" y="726" class="body" style="fill:#020617">Open run log</text>
  
  
</svg>