<svg xmlns="http://www.w3.org/2000/svg" width="1440" height="960" viewBox="0 0 1440 960">
  <rect width="1440" height="960" fill="#f8fafc"/>
  <style>
    .title{font:700 24px Inter,Segoe UI,"Yu Gothic UI",Meiryo,Arial,sans-serif;fill:#020617}
    .h2{font:700 17px Inter,Segoe UI,"Yu Gothic UI",Meiryo,Arial,sans-serif;fill:#020617}
    .h3{font:700 14px Inter,Segoe UI,"Yu Gothic UI",Meiryo,Arial,sans-serif;fill:#020617}
    .body{font:500 13px Inter,Segoe UI,"Yu Gothic UI",Meiryo,Arial,sans-serif;fill:#020617}
    .small{font:500 11px Inter,Segoe UI,"Yu Gothic UI",Meiryo,Arial,sans-serif;fill:#334155}
    .tiny{font:600 10px Inter,Segoe UI,"Yu Gothic UI",Meiryo,Arial,sans-serif;fill:#334155}
    .mono{font:500 12px Consolas,Menlo,monospace;fill:#020617}
    .nav{font:650 13px Inter,Segoe UI,Arial,sans-serif;fill:#334155}
    .nav-on{font:700 13px Inter,Segoe UI,Arial,sans-serif;fill:#4338ca}
  </style>
  
    <rect x="0" y="0" width="200" height="960" rx="0" fill="#ffffff" stroke="#e2e8f0"/>
    <text x="28" y="42" class="title">Nagare</text>
    <text x="30" y="64" class="tiny" style="fill:#4338ca">HACHIWARE LABS</text>
    <text x="30" y="82" class="small">Agent work control</text>
    <rect x="18" y="96" width="164" height="32" rx="7" fill="#eef2ff" stroke="#eef2ff"/>
      <text x="34" y="118" class="nav-on">Work Items</text>
      <text x="34" y="156" class="nav">Agents</text>
      <text x="34" y="194" class="nav">Settings</text>
    <line x1="200" y1="0" x2="200" y2="960" stroke="#e2e8f0"/>
    
    <text x="232" y="48" class="title">README のセットアップ手順を更新</text>
    <rect x="694" y="30" width="48" height="24" rx="12" fill="#fffbeb" stroke="#fffbeb"/>
  <text x="703" y="46" class="tiny" style="fill:#b45309">承認待ち</text>
    <rect x="790" y="30" width="151" height="24" rx="12" fill="#ecfdf5" stroke="#ecfdf5"/>
  <text x="799" y="46" class="tiny" style="fill:#047857">verification passed</text>

    <rect x="232" y="86" width="512" height="698" rx="8" fill="#ffffff" stroke="#e2e8f0"/>
    <text x="260" y="126" class="h2">承認判断</text><text x="260" y="146" class="small">結果と根拠を同じ場所で確認する</text>
    <text x="260" y="178" class="body">README にセットアップ手順を反映しました。</text>
    <text x="260" y="208" class="small">docs/setup.md の新しい手順を追加し、</text>
    <text x="260" y="230" class="small">重複していた説明は統合しています。</text>
    <text x="260" y="292" class="h2">承認チェック</text>
    <rect x="260" y="320" width="95" height="24" rx="12" fill="#eef2ff" stroke="#eef2ff"/>
  <text x="269" y="336" class="tiny" style="fill:#4338ca">diff linked</text>
    <rect x="368" y="320" width="109" height="24" rx="12" fill="#ecfdf5" stroke="#ecfdf5"/>
  <text x="377" y="336" class="tiny" style="fill:#047857">review passed</text>
    <rect x="494" y="320" width="123" height="24" rx="12" fill="#ecfdf5" stroke="#ecfdf5"/>
  <text x="503" y="336" class="tiny" style="fill:#047857">npm test passed</text>
    <text x="260" y="386" class="h2">判断材料</text>
    <text x="260" y="420" class="small">Change: README setup section updated</text>
    <text x="260" y="448" class="small">Review: 2 / 2 criteria passed</text>
    <text x="260" y="476" class="small">Verify: npm test exit 0</text>
    <rect x="260" y="546" width="118" height="34" rx="7" fill="#ffffff" stroke="#e2e8f0"/>
  <text x="274" y="568" class="body" style="fill:#020617">Open artifact</text>
    <rect x="396" y="546" width="136" height="34" rx="7" fill="#ffffff" stroke="#e2e8f0"/>
  <text x="410" y="568" class="body" style="fill:#020617">Open verify log</text>
    <rect x="260" y="636" width="132" height="34" rx="7" fill="#4338ca" stroke="#4338ca"/>
  <text x="274" y="658" class="body" style="fill:#ffffff">Approve Result</text>
    <rect x="410" y="636" width="132" height="34" rx="7" fill="#ffffff" stroke="#e2e8f0"/>
  <text x="424" y="658" class="body" style="fill:#020617">Request changes</text>

    <rect x="772" y="86" width="624" height="698" rx="8" fill="#ffffff" stroke="#e2e8f0"/>
    <text x="800" y="126" class="h2">処理履歴</text><text x="800" y="146" class="small">完了直前の状態を 6 step で確認する</text>
    
    <rect x="826" y="174" width="420" height="86" rx="7" fill="#ffffff" stroke="#e2e8f0"/>
    <circle cx="856" cy="217" r="16" fill="#ecfdf5" stroke="#047857" stroke-width="2"/>
    <text x="848" y="221" class="tiny" style="fill:#047857">01</text>
    <text x="884" y="204" class="h3">依頼を作成</text>
    <rect x="884" y="214" width="48" height="24" rx="12" fill="#ecfdf5" stroke="#ecfdf5"/>
  <text x="893" y="230" class="tiny" style="fill:#047857">完了</text>
    <rect x="958" y="214" width="48" height="24" rx="12" fill="#f1f5f9" stroke="#f1f5f9"/>
  <text x="967" y="230" class="tiny" style="fill:#475569">User</text>
    <text x="884" y="246" class="small">12:03 / request and criteria recorded</text>
  
    
    <rect x="826" y="268" width="420" height="86" rx="7" fill="#ffffff" stroke="#e2e8f0"/>
    <circle cx="856" cy="311" r="16" fill="#ecfdf5" stroke="#047857" stroke-width="2"/>
    <text x="848" y="315" class="tiny" style="fill:#047857">02</text>
    <text x="884" y="298" class="h3">Agent 選定</text>
    <rect x="884" y="308" width="48" height="24" rx="12" fill="#ecfdf5" stroke="#ecfdf5"/>
  <text x="893" y="324" class="tiny" style="fill:#047857">完了</text>
    <rect x="958" y="308" width="116" height="24" rx="12" fill="#f1f5f9" stroke="#f1f5f9"/>
  <text x="967" y="324" class="tiny" style="fill:#475569">dispatch-agent</text>
    <text x="884" y="340" class="small">12:03 / target writing-agent</text>
  
    
    <rect x="826" y="362" width="420" height="86" rx="7" fill="#ffffff" stroke="#e2e8f0"/>
    <circle cx="856" cy="405" r="16" fill="#ecfdf5" stroke="#047857" stroke-width="2"/>
    <text x="848" y="409" class="tiny" style="fill:#047857">03</text>
    <text x="884" y="392" class="h3">作業完了</text>
    <rect x="884" y="402" width="48" height="24" rx="12" fill="#ecfdf5" stroke="#ecfdf5"/>
  <text x="893" y="418" class="tiny" style="fill:#047857">完了</text>
    <rect x="958" y="402" width="109" height="24" rx="12" fill="#f1f5f9" stroke="#f1f5f9"/>
  <text x="967" y="418" class="tiny" style="fill:#475569">writing-agent</text>
    <text x="884" y="434" class="small">12:05 / artifact README diff created</text>
  
    
    <rect x="826" y="456" width="420" height="86" rx="7" fill="#ffffff" stroke="#e2e8f0"/>
    <circle cx="856" cy="499" r="16" fill="#ecfdf5" stroke="#047857" stroke-width="2"/>
    <text x="848" y="503" class="tiny" style="fill:#047857">04</text>
    <text x="884" y="486" class="h3">Review passed</text>
    <rect x="884" y="496" width="48" height="24" rx="12" fill="#ecfdf5" stroke="#ecfdf5"/>
  <text x="893" y="512" class="tiny" style="fill:#047857">完了</text>
    <rect x="958" y="496" width="102" height="24" rx="12" fill="#f1f5f9" stroke="#f1f5f9"/>
  <text x="967" y="512" class="tiny" style="fill:#475569">review-agent</text>
    <text x="884" y="528" class="small">12:06 / 2 of 2 criteria passed</text>
  
    
    <rect x="826" y="550" width="420" height="86" rx="7" fill="#ffffff" stroke="#e2e8f0"/>
    <circle cx="856" cy="593" r="16" fill="#ecfdf5" stroke="#047857" stroke-width="2"/>
    <text x="848" y="597" class="tiny" style="fill:#047857">05</text>
    <text x="884" y="580" class="h3">Verification passed</text>
    <rect x="884" y="590" width="48" height="24" rx="12" fill="#ecfdf5" stroke="#ecfdf5"/>
  <text x="893" y="606" class="tiny" style="fill:#047857">完了</text>
    <rect x="958" y="590" width="60" height="24" rx="12" fill="#f1f5f9" stroke="#f1f5f9"/>
  <text x="967" y="606" class="tiny" style="fill:#475569">runner</text>
    <text x="884" y="622" class="small">12:07 / npm test exit 0</text>
  
    
    <rect x="826" y="644" width="420" height="86" rx="7" fill="#eef2ff" stroke="#4338ca"/>
    <circle cx="856" cy="687" r="16" fill="#fffbeb" stroke="#b45309" stroke-width="2"/>
    <text x="848" y="691" class="tiny" style="fill:#b45309">06</text>
    <text x="884" y="674" class="h3">承認ゲート</text>
    <rect x="884" y="684" width="48" height="24" rx="12" fill="#fffbeb" stroke="#fffbeb"/>
  <text x="893" y="700" class="tiny" style="fill:#b45309">確認待ち</text>
    <rect x="958" y="684" width="74" height="24" rx="12" fill="#f1f5f9" stroke="#f1f5f9"/>
  <text x="967" y="700" class="tiny" style="fill:#475569">Workflow</text>
    <text x="884" y="716" class="small">12:08 / user approval waiting</text>
  
  
  
</svg>