<svg xmlns="http://www.w3.org/2000/svg" width="1440" height="1024" viewBox="0 0 1440 1024" role="img" aria-labelledby="-title -desc">
  <title id="-title">機能範囲の解決</title>
  <desc id="-desc">スキル、MCP、ツールの登録範囲から実行時に使える機能までを示す解決画面。</desc>
  <rect width="1440" height="1024" fill="#f7f8fb"/>
  <style>
    .title{font:700 25px Inter,"Segoe UI","Yu Gothic UI",Meiryo,Arial,sans-serif;fill:#111827}
    .kicker{font:700 10px Inter,"Segoe UI",Arial,sans-serif;fill:#4f46e5}
    .h1{font:750 22px Inter,"Segoe UI","Yu Gothic UI",Meiryo,Arial,sans-serif;fill:#111827}
    .h2{font:700 16px Inter,"Segoe UI","Yu Gothic UI",Meiryo,Arial,sans-serif;fill:#111827}
    .h3{font:700 13px Inter,"Segoe UI","Yu Gothic UI",Meiryo,Arial,sans-serif;fill:#111827}
    .body{font:500 12px Inter,"Segoe UI","Yu Gothic UI",Meiryo,Arial,sans-serif;fill:#111827}
    .small{font:500 11px Inter,"Segoe UI","Yu Gothic UI",Meiryo,Arial,sans-serif;fill:#526174}
    .tiny{font:700 10px Inter,"Segoe UI","Yu Gothic UI",Meiryo,Arial,sans-serif;fill:#526174}
    .mono{font:500 11px Consolas,Menlo,monospace;fill:#111827}
    .nav{font:650 13px Inter,"Segoe UI",Arial,sans-serif;fill:#526174}
    .nav-on{font:750 13px Inter,"Segoe UI",Arial,sans-serif;fill:#4f46e5}
  </style>

    <g id="sidebar">
      <rect x="0" y="0" width="204" height="1024" rx="0" fill="#ffffff" stroke="#d8e0ea" stroke-width="1"/>
      <text x="28" y="43" class="title">Nagare</text>
      <text x="30" y="64" class="kicker">制御プレーン</text>
      <text x="30" y="82" class="small">プロジェクト対応ランタイム</text>
      <g>

        <text x="34" y="118" class="nav">ワーク</text>
      </g><g>
        <rect x="18" y="135" width="168" height="33" rx="7" fill="#eef2ff" stroke="#eef2ff" stroke-width="1"/>
        <text x="34" y="157" class="nav-on">プロジェクト</text>
      </g><g>

        <text x="34" y="196" class="nav">ドメイン</text>
      </g><g>

        <text x="34" y="235" class="nav">エージェント</text>
      </g><g>

        <text x="34" y="274" class="nav">スキル</text>
      </g><g>

        <text x="34" y="313" class="nav">MCP</text>
      </g><g>

        <text x="34" y="352" class="nav">設定</text>
      </g>
    </g>
    <g id="page-header">
      <text x="232" y="48" class="title">機能範囲の解決</text>
      <text x="232" y="72" class="small">スキル / MCP / ツールを登録・許可・付与・実行可能性に分けて解決する</text>
      <rect x="1236" y="28" width="120" height="34" rx="7" fill="#4f46e5" stroke="#4f46e5" stroke-width="1"/>
  <text x="1250" y="50" class="body" style="fill:#ffffff">機能を追加</text><rect x="1104" y="28" width="116" height="34" rx="7" fill="#ffffff" stroke="#b8c4d3" stroke-width="1"/>
  <text x="1118" y="50" class="body" style="fill:#111827">ポリシー編集</text>
    </g>
    <g id="content">

    <rect x="232" y="96" width="1164" height="828" rx="8" fill="#ffffff" stroke="#d8e0ea" stroke-width="1"/>
    <rect x="252" y="124" width="284" height="720" rx="8" fill="#fbfcfe" stroke="#d8e0ea" stroke-width="1"/>
    <text x="276" y="162" class="h2">選択中</text>
    <text x="276" y="194" class="h3">hachiware-labs/hachi-search</text>
    <text x="276" y="220" class="small">スキル / Web・ローカル検索</text>
    <line x1="276" y1="250" x2="512" y2="250" stroke="#d8e0ea" stroke-width="1"/>
    <rect x="276" y="282" width="152" height="24" rx="12" fill="#eef2ff" stroke="#eef2ff" stroke-width="1"/>
  <text x="286" y="298" class="tiny" style="fill:#4f46e5">プロジェクト範囲</text>
    <rect x="276" y="318" width="118" height="24" rx="12" fill="#dbeafe" stroke="#dbeafe" stroke-width="1"/>
  <text x="286" y="334" class="tiny" style="fill:#2563eb">対象: Codex</text>
    <rect x="276" y="354" width="142" height="24" rx="12" fill="#fee2e2" stroke="#fee2e2" stroke-width="1"/>
  <text x="286" y="370" class="tiny" style="fill:#b91c1c">全体付与しない</text>
    <text x="276" y="420" class="h3">範囲混在の防止</text>
    <text x="276" y="448" class="small">全体インストールだけでは</text>
    <text x="276" y="470" class="small">エージェントへ自動付与しない</text>

    <rect x="568" y="124" width="492" height="720" rx="8" fill="#fbfcfe" stroke="#d8e0ea" stroke-width="1"/>
    <text x="592" y="162" class="h2">範囲解決</text>
    <text x="592" y="188" class="small">登録から実行可能性まで、各スコープで絞り込む</text>
    <rect x="579" y="236" width="430" height="52" rx="8" fill="#ffffff" stroke="#d8e0ea" stroke-width="1"/>
    <text x="597" y="259" class="h3">レジストリ</text>
    <text x="597" y="278" class="small">全体カタログ</text>
    <rect x="887" y="250" width="100" height="24" rx="12" fill="#dcfce7" stroke="#dcfce7" stroke-width="1"/>
  <text x="897" y="266" class="tiny" style="fill:#15803d">登録済み</text>
    <line x1="814" y1="288" x2="814" y2="318" stroke="#b8c4d3" stroke-width="2"/><path d="M 806 313 L 814 318 L 806 323" fill="none" stroke="#b8c4d3" stroke-width="2" stroke-linecap="round"/>
    <rect x="599" y="318" width="390" height="52" rx="8" fill="#ffffff" stroke="#d8e0ea" stroke-width="1"/>
    <text x="617" y="341" class="h3">プロジェクト</text>
    <text x="617" y="360" class="small">Nagare許可ポリシー</text>
    <rect x="867" y="332" width="100" height="24" rx="12" fill="#dcfce7" stroke="#dcfce7" stroke-width="1"/>
  <text x="877" y="348" class="tiny" style="fill:#15803d">許可</text>
    <line x1="814" y1="370" x2="814" y2="400" stroke="#b8c4d3" stroke-width="2"/><path d="M 806 395 L 814 400 L 806 405" fill="none" stroke="#b8c4d3" stroke-width="2" stroke-linecap="round"/>
    <rect x="619" y="400" width="350" height="52" rx="8" fill="#ffffff" stroke="#d8e0ea" stroke-width="1"/>
    <text x="637" y="423" class="h3">ドメイン</text>
    <text x="637" y="442" class="small">UX / ドキュメント</text>
    <rect x="847" y="414" width="100" height="24" rx="12" fill="#dcfce7" stroke="#dcfce7" stroke-width="1"/>
  <text x="857" y="430" class="tiny" style="fill:#15803d">許可</text>
    <line x1="814" y1="452" x2="814" y2="482" stroke="#b8c4d3" stroke-width="2"/><path d="M 806 477 L 814 482 L 806 487" fill="none" stroke="#b8c4d3" stroke-width="2" stroke-linecap="round"/>
    <rect x="639" y="482" width="310" height="52" rx="8" fill="#ffffff" stroke="#d8e0ea" stroke-width="1"/>
    <text x="657" y="505" class="h3">エージェント</text>
    <text x="657" y="524" class="small">researcher-agent</text>
    <rect x="827" y="496" width="100" height="24" rx="12" fill="#eef2ff" stroke="#eef2ff" stroke-width="1"/>
  <text x="837" y="512" class="tiny" style="fill:#4f46e5">付与済み</text>
    <line x1="814" y1="534" x2="814" y2="564" stroke="#b8c4d3" stroke-width="2"/><path d="M 806 559 L 814 564 L 806 569" fill="none" stroke="#b8c4d3" stroke-width="2" stroke-linecap="round"/>
    <rect x="659" y="564" width="270" height="52" rx="8" fill="#ffffff" stroke="#d8e0ea" stroke-width="1"/>
    <text x="677" y="587" class="h3">割り当て</text>
    <text x="677" y="606" class="small">UX -&gt; designer-agent</text>
    <rect x="807" y="578" width="100" height="24" rx="12" fill="#f1f5f9" stroke="#f1f5f9" stroke-width="1"/>
  <text x="817" y="594" class="tiny" style="fill:#526174">未付与</text>
    <line x1="814" y1="616" x2="814" y2="646" stroke="#b8c4d3" stroke-width="2"/><path d="M 806 641 L 814 646 L 806 651" fill="none" stroke="#b8c4d3" stroke-width="2" stroke-linecap="round"/>
    <rect x="679" y="646" width="230" height="52" rx="8" fill="#ffffff" stroke="#d8e0ea" stroke-width="1"/>
    <text x="697" y="669" class="h3">ランタイム</text>
    <text x="697" y="688" class="small">Codexスレッド_8cc2</text>
    <rect x="787" y="660" width="100" height="24" rx="12" fill="#dcfce7" stroke="#dcfce7" stroke-width="1"/>
  <text x="797" y="676" class="tiny" style="fill:#15803d">実行可</text>

    <rect x="1092" y="124" width="284" height="720" rx="8" fill="#fbfcfe" stroke="#d8e0ea" stroke-width="1"/>
    <text x="1116" y="162" class="h2">実行時機能</text>
    <text x="1116" y="188" class="small">実行時に見える道具</text>
    <rect x="1116" y="232" width="96" height="24" rx="12" fill="#dcfce7" stroke="#dcfce7" stroke-width="1"/>
  <text x="1126" y="248" class="tiny" style="fill:#15803d">許可: 2</text>
    <text x="1116" y="266" class="body">hachi-search</text>
    <text x="1116" y="292" class="body">github-mcp</text>
    <rect x="1116" y="344" width="96" height="24" rx="12" fill="#fef3c7" stroke="#fef3c7" stroke-width="1"/>
  <text x="1126" y="360" class="tiny" style="fill:#b45309">確認: 1</text>
    <text x="1116" y="378" class="body">ファイル書き込み</text>
    <rect x="1116" y="430" width="96" height="24" rx="12" fill="#fee2e2" stroke="#fee2e2" stroke-width="1"/>
  <text x="1126" y="446" class="tiny" style="fill:#b91c1c">禁止: 1</text>
    <text x="1116" y="464" class="body">figma-mcp</text>
    <line x1="1116" y1="520" x2="1352" y2="520" stroke="#d8e0ea" stroke-width="1"/>
    <text x="1116" y="558" class="h3">次の操作</text>
    <rect x="1116" y="582" width="146" height="34" rx="7" fill="#4f46e5" stroke="#4f46e5" stroke-width="1"/>
  <text x="1130" y="604" class="body" style="fill:#ffffff">割り当てへ付与</text>
    <rect x="1116" y="630" width="168" height="34" rx="7" fill="#ffffff" stroke="#b8c4d3" stroke-width="1"/>
  <text x="1130" y="652" class="body" style="fill:#111827">プロジェクトから外す</text>

    </g>

</svg>