<svg xmlns="http://www.w3.org/2000/svg" width="1440" height="1024" viewBox="0 0 1440 1024" role="img" aria-labelledby="mcp-title mcp-desc">
  <title id="mcp-title">MCP</title>
  <desc id="mcp-desc">MCPサーバーをスキルとは別に管理し、接続、認証、プロジェクトやエージェントへの提供範囲を確認する画面。</desc>
  <rect width="1440" height="1024" fill="#f7f8fb"/>
  <style>
    .title{font:700 25px Inter,"Segoe UI","Yu Gothic UI",Meiryo,Arial,sans-serif;fill:#111827}
    .kicker{font:700 10px Inter,"Segoe UI",Arial,sans-serif;fill:#4f46e5}
    .h1{font:750 22px Inter,"Segoe UI","Yu Gothic UI",Meiryo,Arial,sans-serif;fill:#111827}
    .h2{font:700 16px Inter,"Segoe UI","Yu Gothic UI",Meiryo,Arial,sans-serif;fill:#111827}
    .h3{font:700 13px Inter,"Segoe UI","Yu Gothic UI",Meiryo,Arial,sans-serif;fill:#111827}
    .body{font:500 12px Inter,"Segoe UI","Yu Gothic UI",Meiryo,Arial,sans-serif;fill:#111827}
    .small{font:500 11px Inter,"Segoe UI","Yu Gothic UI",Meiryo,Arial,sans-serif;fill:#526174}
    .tiny{font:700 10px Inter,"Segoe UI","Yu Gothic UI",Meiryo,Arial,sans-serif;fill:#526174}
    .mono{font:500 11px Consolas,Menlo,monospace;fill:#111827}
    .nav{font:650 13px Inter,"Segoe UI",Arial,sans-serif;fill:#526174}
    .nav-on{font:750 13px Inter,"Segoe UI",Arial,sans-serif;fill:#4f46e5}
  </style>

    <g id="sidebar">
      <rect x="0" y="0" width="204" height="1024" rx="0" fill="#ffffff" stroke="#d8e0ea" stroke-width="1"/>
      <text x="28" y="43" class="title">Nagare</text>
      <text x="30" y="64" class="kicker">制御プレーン</text>
      <text x="30" y="82" class="small">プロジェクト対応ランタイム</text>
      <g>

        <text x="34" y="118" class="nav">ワーク</text>
      </g><g>

        <text x="34" y="157" class="nav">プロジェクト</text>
      </g><g>

        <text x="34" y="196" class="nav">ドメイン</text>
      </g><g>

        <text x="34" y="235" class="nav">エージェント</text>
      </g><g>

        <text x="34" y="274" class="nav">スキル</text>
      </g><g>
        <rect x="18" y="291" width="168" height="33" rx="7" fill="#eef2ff" stroke="#eef2ff" stroke-width="1"/>
        <text x="34" y="313" class="nav-on">MCP</text>
      </g><g>

        <text x="34" y="352" class="nav">設定</text>
      </g>
    </g>
    <g id="page-header">
      <text x="232" y="48" class="title">MCP</text>
      <text x="232" y="72" class="small">MCPをスキルとは別に登録し、接続と提供範囲を管理する</text>

    </g>
    <g id="content">

    <rect x="232" y="96" width="1164" height="828" rx="8" fill="#ffffff" stroke="#d8e0ea" stroke-width="1"/>
    <rect x="252" y="124" width="1124" height="86" rx="8" fill="#fbfcfe" stroke="#d8e0ea" stroke-width="1"/>
    <text x="276" y="162" class="h1">MCP管理</text>
    <text x="276" y="190" class="body">MCPサーバーを登録し、接続・認証・対応ランタイムを管理します。割り当てはエージェントで行います。</text>
    <rect x="1162" y="150" width="112" height="34" rx="7" fill="#4f46e5" stroke="#4f46e5" stroke-width="1"/>
  <text x="1176" y="172" class="body" style="fill:#ffffff">MCPを追加</text>
    <rect x="1274" y="150" width="94" height="34" rx="7" fill="#ffffff" stroke="#b8c4d3" stroke-width="1"/>
  <text x="1288" y="172" class="body" style="fill:#111827">接続確認</text>

    <rect x="252" y="238" width="1124" height="76" rx="8" fill="#fbfcfe" stroke="#d8e0ea" stroke-width="1"/>
    <text x="276" y="270" class="h2">エージェントで選べる条件</text>
    <text x="276" y="296" class="body">当面はランタイム種別ごとの固定テーブルで、エージェントへ付与できるMCPだけ候補に表示します。</text>
    <rect x="1160" y="260" width="150" height="34" rx="7" fill="#ffffff" stroke="#b8c4d3" stroke-width="1"/>
  <text x="1174" y="282" class="body" style="fill:#111827">エージェント設定へ</text>

    <rect x="252" y="340" width="1124" height="504" rx="8" fill="#fbfcfe" stroke="#d8e0ea" stroke-width="1"/>
    <text x="276" y="380" class="h1">登録済み MCP</text>
    <text x="276" y="416" class="h3">接続方式</text>
    <rect x="276" y="430" width="180" height="38" rx="7" fill="#ffffff" stroke="#b8c4d3" stroke-width="1"/>
    <text x="290" y="455" class="body">すべて</text>
    <path d="M 428 445 L 436 453 L 444 445" fill="none" stroke="#526174" stroke-width="1.8" stroke-linecap="round" stroke-linejoin="round"/>
    <text x="478" y="416" class="h3">認証</text>
    <rect x="478" y="430" width="180" height="38" rx="7" fill="#ffffff" stroke="#b8c4d3" stroke-width="1"/>
    <text x="492" y="455" class="body">すべて</text>
    <path d="M 630 445 L 638 453 L 646 445" fill="none" stroke="#526174" stroke-width="1.8" stroke-linecap="round" stroke-linejoin="round"/>
    <text x="680" y="416" class="h3">対応ランタイム</text>
    <rect x="680" y="430" width="180" height="38" rx="7" fill="#ffffff" stroke="#b8c4d3" stroke-width="1"/>
    <text x="694" y="455" class="body">すべて</text>
    <path d="M 832 445 L 840 453 L 848 445" fill="none" stroke="#526174" stroke-width="1.8" stroke-linecap="round" stroke-linejoin="round"/>
    <rect x="882" y="430" width="200" height="38" rx="7" fill="#ffffff" stroke="#b8c4d3" stroke-width="1"/>
    <text x="900" y="455" class="small" style="fill:#526174">名前で検索</text>
    <rect x="1102" y="430" width="92" height="34" rx="7" fill="#ffffff" stroke="#b8c4d3" stroke-width="1"/>
  <text x="1116" y="452" class="body" style="fill:#111827">絞り込み</text>
    <rect x="1206" y="430" width="78" height="34" rx="7" fill="#ffffff" stroke="#b8c4d3" stroke-width="1"/>
  <text x="1220" y="452" class="body" style="fill:#111827">クリア</text>

    <line x1="276" y1="496" x2="1332" y2="496" stroke="#d8e0ea" stroke-width="1"/>
    <text x="300" y="526" class="tiny">名前</text>
    <text x="562" y="526" class="tiny">方式</text>
    <text x="654" y="526" class="tiny">認証</text>
    <text x="770" y="526" class="tiny">対応ランタイム / スコープ</text>
    <text x="1016" y="526" class="tiny">状態</text>
    <text x="1130" y="526" class="tiny">割り当て</text>
    <line x1="276" y1="544" x2="1332" y2="544" stroke="#d8e0ea" stroke-width="1"/>
    <g>
      <rect x="276" y="544" width="1056" height="86" rx="0" fill="#ffffff" stroke="#d8e0ea" stroke-width="1"/>
      <rect x="276" y="544" width="4" height="86" rx="2" fill="#7c3aed"/>
      <text x="300" y="572" class="h3">github-mcp</text>
      <text x="300" y="596" class="small">Issue、PR、Actionsを参照・操作する</text>
      <text x="562" y="580" class="body">stdio</text>
      <text x="654" y="580" class="body">Token</text>
      <text x="770" y="574" class="small">Codex/Claude: プロジェクト限定、Nagare管理</text>
      <rect x="1016" y="567" width="92" height="24" rx="12" fill="#dcfce7" stroke="#dcfce7" stroke-width="1"/>
  <text x="1026" y="583" class="tiny" style="fill:#15803d">接続済み</text>
      <text x="1130" y="580" class="small">エージェントで設定</text>
      <rect x="1230" y="570" width="72" height="34" rx="7" fill="#ffffff" stroke="#b8c4d3" stroke-width="1"/>
  <text x="1244" y="592" class="body" style="fill:#111827">詳細</text>
    </g>
    <g>
      <rect x="276" y="626" width="1056" height="86" rx="0" fill="#ffffff" stroke="#d8e0ea" stroke-width="1"/>
      <rect x="276" y="626" width="4" height="86" rx="2" fill="#7c3aed"/>
      <text x="300" y="654" class="h3">filesystem-mcp</text>
      <text x="300" y="678" class="small">許可された作業フォルダを読み書きする</text>
      <text x="562" y="662" class="body">stdio</text>
      <text x="654" y="662" class="body">なし</text>
      <text x="770" y="656" class="small">Codex/Claude/OpenCode: プロジェクト限定</text>
      <rect x="1016" y="649" width="92" height="24" rx="12" fill="#fef3c7" stroke="#fef3c7" stroke-width="1"/>
  <text x="1026" y="665" class="tiny" style="fill:#b45309">確認待ち</text>
      <text x="1130" y="662" class="small">エージェントで設定</text>
      <rect x="1230" y="652" width="72" height="34" rx="7" fill="#ffffff" stroke="#b8c4d3" stroke-width="1"/>
  <text x="1244" y="674" class="body" style="fill:#111827">詳細</text>
    </g>
    <g>
      <rect x="276" y="708" width="1056" height="86" rx="0" fill="#ffffff" stroke="#d8e0ea" stroke-width="1"/>
      <rect x="276" y="708" width="4" height="86" rx="2" fill="#7c3aed"/>
      <text x="300" y="736" class="h3">figma-mcp</text>
      <text x="300" y="760" class="small">デザインファイルを参照する</text>
      <text x="562" y="744" class="body">http</text>
      <text x="654" y="744" class="body">OAuth</text>
      <text x="770" y="738" class="small">Claude: ユーザー全体のみ</text>
      <rect x="1016" y="731" width="92" height="24" rx="12" fill="#fee2e2" stroke="#fee2e2" stroke-width="1"/>
  <text x="1026" y="747" class="tiny" style="fill:#b91c1c">未接続</text>
      <text x="1130" y="744" class="small">候補外</text>
      <rect x="1230" y="734" width="72" height="34" rx="7" fill="#ffffff" stroke="#b8c4d3" stroke-width="1"/>
  <text x="1244" y="756" class="body" style="fill:#111827">詳細</text>
    </g>

    </g>

</svg>